<svg width="35" height="32" viewBox="0 0 35 32" fill="none" xmlns="http://www.w3.org/2000/svg">
<path d="M17.0504 6.35231L19.0184 10.1168C19.288 10.6336 19.9835 11.1347 20.5631 11.2138L24.0122 11.7297C26.2206 12.0552 26.755 13.6404 25.2091 15.2516L22.5756 17.9807C22.136 18.438 21.8926 19.3246 22.0505 19.9406L22.8733 23.2455C23.5203 25.8547 22.1492 26.8978 19.8138 25.569L16.5514 23.7123C15.9573 23.3729 15.0003 23.3979 14.4265 23.7498L11.2335 25.712C8.94775 27.1144 7.5374 26.1229 8.09331 23.4948L8.80423 20.169C8.93698 19.5473 8.67419 18.6692 8.2168 18.2296L5.48776 15.5961C3.88646 14.0448 4.3645 12.4427 6.55625 12.0366L9.97845 11.405C10.5561 11.2936 11.2345 10.7824 11.4809 10.2518L13.3165 6.41349C14.304 4.34133 15.988 4.31495 17.0504 6.35231Z" fill="#292D32"/>
<path opacity="0.4" d="M29.9076 20.18L25.2996 18.8288C24.8586 18.6995 24.3866 18.9575 24.2573 19.3985C24.128 19.8395 24.3859 20.3115 24.827 20.4409L29.4349 21.792C29.6631 21.8589 29.8875 21.8256 30.0743 21.7235C30.2612 21.6214 30.4104 21.4504 30.4773 21.2223C30.6066 20.7813 30.3486 20.3093 29.9076 20.18Z" fill="#292D32"/>
<path d="M26.3814 23.7136L23.46 18.368L29.4927 15.0709L34.0942 19.4983L26.3814 23.7136Z" fill="#FFFEFE"/>
</svg>
