<svg width="25" height="25" viewBox="0 0 25 25" fill="none" xmlns="http://www.w3.org/2000/svg">
<path d="M18.425 24.678C17.836 24.678 17.0802 24.489 16.1355 23.9333L12.8123 21.9661C12.4678 21.7661 11.801 21.7661 11.4675 21.9661L8.13329 23.9333C6.16608 25.1003 5.01021 24.6335 4.48784 24.2556C3.97659 23.8778 3.17637 22.9108 3.69874 20.688L4.48784 17.2759C4.57676 16.9203 4.39893 16.309 4.13219 16.0423L1.37587 13.2859C-0.00228657 11.9078 0.108855 10.7297 0.297796 10.1517C0.486737 9.57376 1.0869 8.55126 2.99854 8.22895L6.54397 7.6399C6.87739 7.58432 7.3553 7.22867 7.49979 6.92859L9.467 3.00528C10.3561 1.2159 11.5231 0.949158 12.1344 0.949158C12.7457 0.949158 13.9126 1.2159 14.8018 3.00528L16.7579 6.91747C16.9135 7.21756 17.3914 7.57321 17.7248 7.62878L21.2702 8.21783C23.193 8.54014 23.7932 9.56265 23.971 10.1406C24.1488 10.7186 24.2599 11.8967 22.8929 13.2748L20.1366 16.0423C19.8698 16.309 19.7031 16.9092 19.7809 17.2759L20.57 20.688C21.0813 22.9108 20.2922 23.8778 19.7809 24.2556C19.5031 24.4557 19.0585 24.678 18.425 24.678ZM12.1344 20.1434C12.679 20.1434 13.2236 20.2768 13.657 20.5324L16.9802 22.4996C17.9471 23.0775 18.5584 23.0775 18.7918 22.9108C19.0252 22.7441 19.1919 22.1551 18.9474 21.0659L18.1583 17.6538C17.9471 16.7313 18.2916 15.5421 18.9585 14.8641L21.7148 12.1078C22.2594 11.5632 22.5039 11.0298 22.3928 10.663C22.2705 10.2962 21.7593 9.9961 21.0035 9.87385L17.4581 9.2848C16.6023 9.14031 15.6687 8.45123 15.2797 7.67324L13.3236 3.76105C12.9679 3.04974 12.5234 2.6274 12.1344 2.6274C11.7454 2.6274 11.3008 3.04974 10.9563 3.76105L8.98909 7.67324C8.60009 8.45123 7.6665 9.14031 6.81071 9.2848L3.2764 9.87385C2.52063 9.9961 2.00938 10.2962 1.88712 10.663C1.76487 11.0298 2.02049 11.5744 2.56509 12.1078L5.32141 14.8641C5.98826 15.531 6.3328 16.7313 6.12163 17.6538L5.33252 21.0659C5.07689 22.1662 5.25472 22.7441 5.48812 22.9108C5.72152 23.0775 6.32168 23.0664 7.29973 22.4996L10.6228 20.5324C11.0452 20.2768 11.5898 20.1434 12.1344 20.1434Z" fill="#292D32"/>
</svg>
